<mxfile host="app.diagrams.net" agent="Mozilla/5.0 (X11; Linux x86_64; rv:130.0) Gecko/20100101 Firefox/130.0" version="24.7.14">
  <diagram name="Page-1" id="5f0bae14-7c28-e335-631c-24af17079c00">
    <mxGraphModel dx="1154" dy="544" grid="1" gridSize="10" guides="1" tooltips="1" connect="1" arrows="1" fold="1" page="1" pageScale="1" pageWidth="1100" pageHeight="850" background="none" math="0" shadow="0">
      <root>
        <mxCell id="0" />
        <mxCell id="1" parent="0" />
        <mxCell id="DfnIMQFQRBdk7RAHaL1m-7" value="Guest" style="swimlane;fontStyle=1;align=center;verticalAlign=top;childLayout=stackLayout;horizontal=1;startSize=26;horizontalStack=0;resizeParent=1;resizeParentMax=0;resizeLast=0;collapsible=1;marginBottom=0;whiteSpace=wrap;html=1;" vertex="1" parent="1">
          <mxGeometry x="110" y="80" width="160" height="130" as="geometry" />
        </mxCell>
        <mxCell id="DfnIMQFQRBdk7RAHaL1m-11" style="edgeStyle=orthogonalEdgeStyle;rounded=0;orthogonalLoop=1;jettySize=auto;html=1;exitX=1;exitY=0.5;exitDx=0;exitDy=0;" edge="1" parent="DfnIMQFQRBdk7RAHaL1m-7" source="DfnIMQFQRBdk7RAHaL1m-8">
          <mxGeometry relative="1" as="geometry">
            <mxPoint x="230" y="39" as="targetPoint" />
          </mxGeometry>
        </mxCell>
        <mxCell id="DfnIMQFQRBdk7RAHaL1m-8" value="+ field: no" style="text;strokeColor=none;fillColor=none;align=left;verticalAlign=top;spacingLeft=4;spacingRight=4;overflow=hidden;rotatable=0;points=[[0,0.5],[1,0.5]];portConstraint=eastwest;whiteSpace=wrap;html=1;" vertex="1" parent="DfnIMQFQRBdk7RAHaL1m-7">
          <mxGeometry y="26" width="160" height="26" as="geometry" />
        </mxCell>
        <mxCell id="DfnIMQFQRBdk7RAHaL1m-9" value="" style="line;strokeWidth=1;fillColor=none;align=left;verticalAlign=middle;spacingTop=-1;spacingLeft=3;spacingRight=3;rotatable=0;labelPosition=right;points=[];portConstraint=eastwest;strokeColor=inherit;" vertex="1" parent="DfnIMQFQRBdk7RAHaL1m-7">
          <mxGeometry y="52" width="160" height="8" as="geometry" />
        </mxCell>
        <mxCell id="DfnIMQFQRBdk7RAHaL1m-10" value="&lt;div&gt;+ Check Result&lt;/div&gt;&lt;div&gt;+ Check Blog&lt;/div&gt;&lt;div&gt;+ Check Historic&lt;/div&gt;&lt;div&gt;+ Login&lt;br&gt;&lt;/div&gt;&lt;div&gt;&lt;div&gt;&lt;br&gt;&lt;/div&gt;&lt;div&gt;&lt;br&gt;&lt;/div&gt;&lt;/div&gt;" style="text;strokeColor=none;fillColor=none;align=left;verticalAlign=top;spacingLeft=4;spacingRight=4;overflow=hidden;rotatable=0;points=[[0,0.5],[1,0.5]];portConstraint=eastwest;whiteSpace=wrap;html=1;" vertex="1" parent="DfnIMQFQRBdk7RAHaL1m-7">
          <mxGeometry y="60" width="160" height="70" as="geometry" />
        </mxCell>
        <mxCell id="DfnIMQFQRBdk7RAHaL1m-12" value="User" style="swimlane;fontStyle=1;align=center;verticalAlign=top;childLayout=stackLayout;horizontal=1;startSize=26;horizontalStack=0;resizeParent=1;resizeParentMax=0;resizeLast=0;collapsible=1;marginBottom=0;whiteSpace=wrap;html=1;" vertex="1" parent="1">
          <mxGeometry x="340" y="80" width="160" height="120" as="geometry" />
        </mxCell>
        <mxCell id="DfnIMQFQRBdk7RAHaL1m-14" value="&lt;div&gt;+ Id&lt;/div&gt;&lt;div&gt;+ Name&lt;br&gt;&lt;/div&gt;" style="text;strokeColor=none;fillColor=none;align=left;verticalAlign=top;spacingLeft=4;spacingRight=4;overflow=hidden;rotatable=0;points=[[0,0.5],[1,0.5]];portConstraint=eastwest;whiteSpace=wrap;html=1;" vertex="1" parent="DfnIMQFQRBdk7RAHaL1m-12">
          <mxGeometry y="26" width="160" height="34" as="geometry" />
        </mxCell>
        <mxCell id="DfnIMQFQRBdk7RAHaL1m-15" value="" style="line;strokeWidth=1;fillColor=none;align=left;verticalAlign=middle;spacingTop=-1;spacingLeft=3;spacingRight=3;rotatable=0;labelPosition=right;points=[];portConstraint=eastwest;strokeColor=inherit;" vertex="1" parent="DfnIMQFQRBdk7RAHaL1m-12">
          <mxGeometry y="60" width="160" height="8" as="geometry" />
        </mxCell>
        <mxCell id="DfnIMQFQRBdk7RAHaL1m-16" value="&lt;div&gt;+ Change Results&lt;br&gt;&lt;/div&gt;&lt;div&gt;+ Create Blog Post&lt;br&gt;&lt;/div&gt;&lt;div&gt;+ Create change Match&lt;br&gt;&lt;/div&gt;&lt;div&gt;&lt;div&gt;&lt;br&gt;&lt;/div&gt;&lt;div&gt;&lt;br&gt;&lt;/div&gt;&lt;/div&gt;" style="text;strokeColor=none;fillColor=none;align=left;verticalAlign=top;spacingLeft=4;spacingRight=4;overflow=hidden;rotatable=0;points=[[0,0.5],[1,0.5]];portConstraint=eastwest;whiteSpace=wrap;html=1;" vertex="1" parent="DfnIMQFQRBdk7RAHaL1m-12">
          <mxGeometry y="68" width="160" height="52" as="geometry" />
        </mxCell>
        <mxCell id="DfnIMQFQRBdk7RAHaL1m-17" value="Match" style="swimlane;fontStyle=1;align=center;verticalAlign=top;childLayout=stackLayout;horizontal=1;startSize=26;horizontalStack=0;resizeParent=1;resizeParentMax=0;resizeLast=0;collapsible=1;marginBottom=0;whiteSpace=wrap;html=1;" vertex="1" parent="1">
          <mxGeometry x="340" y="250" width="160" height="118" as="geometry" />
        </mxCell>
        <mxCell id="DfnIMQFQRBdk7RAHaL1m-18" value="&lt;div&gt;+ Id&lt;br&gt;&lt;/div&gt;&lt;div&gt;+ Adversary&lt;/div&gt;&lt;div&gt;+ Date&lt;/div&gt;&lt;div&gt;+ Win&lt;/div&gt;&lt;div&gt;+ Sets&lt;br&gt;&lt;/div&gt;" style="text;strokeColor=none;fillColor=none;align=left;verticalAlign=top;spacingLeft=4;spacingRight=4;overflow=hidden;rotatable=0;points=[[0,0.5],[1,0.5]];portConstraint=eastwest;whiteSpace=wrap;html=1;" vertex="1" parent="DfnIMQFQRBdk7RAHaL1m-17">
          <mxGeometry y="26" width="160" height="84" as="geometry" />
        </mxCell>
        <mxCell id="DfnIMQFQRBdk7RAHaL1m-19" value="" style="line;strokeWidth=1;fillColor=none;align=left;verticalAlign=middle;spacingTop=-1;spacingLeft=3;spacingRight=3;rotatable=0;labelPosition=right;points=[];portConstraint=eastwest;strokeColor=inherit;" vertex="1" parent="DfnIMQFQRBdk7RAHaL1m-17">
          <mxGeometry y="110" width="160" height="8" as="geometry" />
        </mxCell>
        <mxCell id="DfnIMQFQRBdk7RAHaL1m-22" value="" style="endArrow=none;dashed=1;html=1;dashPattern=1 3;strokeWidth=2;rounded=0;entryX=0.5;entryY=1;entryDx=0;entryDy=0;" edge="1" parent="1" source="DfnIMQFQRBdk7RAHaL1m-17" target="DfnIMQFQRBdk7RAHaL1m-12">
          <mxGeometry width="50" height="50" relative="1" as="geometry">
            <mxPoint x="520" y="440" as="sourcePoint" />
            <mxPoint x="570" y="390" as="targetPoint" />
          </mxGeometry>
        </mxCell>
        <mxCell id="DfnIMQFQRBdk7RAHaL1m-26" style="edgeStyle=orthogonalEdgeStyle;rounded=0;orthogonalLoop=1;jettySize=auto;html=1;exitX=0.5;exitY=1;exitDx=0;exitDy=0;entryX=0.5;entryY=0;entryDx=0;entryDy=0;" edge="1" parent="1" source="DfnIMQFQRBdk7RAHaL1m-17" target="DfnIMQFQRBdk7RAHaL1m-29">
          <mxGeometry relative="1" as="geometry">
            <mxPoint x="350" y="129" as="targetPoint" />
            <mxPoint x="280" y="129" as="sourcePoint" />
          </mxGeometry>
        </mxCell>
        <mxCell id="DfnIMQFQRBdk7RAHaL1m-29" value="Sets" style="swimlane;fontStyle=1;align=center;verticalAlign=top;childLayout=stackLayout;horizontal=1;startSize=26;horizontalStack=0;resizeParent=1;resizeParentMax=0;resizeLast=0;collapsible=1;marginBottom=0;whiteSpace=wrap;html=1;" vertex="1" parent="1">
          <mxGeometry x="340" y="425" width="160" height="150" as="geometry" />
        </mxCell>
        <mxCell id="DfnIMQFQRBdk7RAHaL1m-31" value="&lt;div&gt;+ Team A Score&lt;br&gt;&lt;/div&gt;&lt;div&gt;+ Team B Score&lt;br&gt;&lt;/div&gt;&lt;div&gt;+ Win&lt;/div&gt;" style="text;strokeColor=none;fillColor=none;align=left;verticalAlign=top;spacingLeft=4;spacingRight=4;overflow=hidden;rotatable=0;points=[[0,0.5],[1,0.5]];portConstraint=eastwest;whiteSpace=wrap;html=1;" vertex="1" parent="DfnIMQFQRBdk7RAHaL1m-29">
          <mxGeometry y="26" width="160" height="54" as="geometry" />
        </mxCell>
        <mxCell id="DfnIMQFQRBdk7RAHaL1m-32" value="" style="line;strokeWidth=1;fillColor=none;align=left;verticalAlign=middle;spacingTop=-1;spacingLeft=3;spacingRight=3;rotatable=0;labelPosition=right;points=[];portConstraint=eastwest;strokeColor=inherit;" vertex="1" parent="DfnIMQFQRBdk7RAHaL1m-29">
          <mxGeometry y="80" width="160" height="8" as="geometry" />
        </mxCell>
        <mxCell id="DfnIMQFQRBdk7RAHaL1m-33" value="&lt;div&gt;+ Check if some one is changing and block 2 people at same time&lt;br&gt;&lt;/div&gt;&lt;div&gt;&lt;div&gt;&lt;br&gt;&lt;/div&gt;&lt;div&gt;&lt;br&gt;&lt;/div&gt;&lt;/div&gt;" style="text;strokeColor=none;fillColor=none;align=left;verticalAlign=top;spacingLeft=4;spacingRight=4;overflow=hidden;rotatable=0;points=[[0,0.5],[1,0.5]];portConstraint=eastwest;whiteSpace=wrap;html=1;" vertex="1" parent="DfnIMQFQRBdk7RAHaL1m-29">
          <mxGeometry y="88" width="160" height="62" as="geometry" />
        </mxCell>
        <mxCell id="DfnIMQFQRBdk7RAHaL1m-36" value="" style="endArrow=none;dashed=1;html=1;rounded=0;entryX=0.445;entryY=1.036;entryDx=0;entryDy=0;entryPerimeter=0;exitX=0;exitY=0.5;exitDx=0;exitDy=0;fontStyle=1" edge="1" parent="1" source="DfnIMQFQRBdk7RAHaL1m-18" target="DfnIMQFQRBdk7RAHaL1m-10">
          <mxGeometry width="50" height="50" relative="1" as="geometry">
            <mxPoint x="290" y="340" as="sourcePoint" />
            <mxPoint x="340" y="290" as="targetPoint" />
            <Array as="points">
              <mxPoint x="181" y="320" />
            </Array>
          </mxGeometry>
        </mxCell>
        <mxCell id="DfnIMQFQRBdk7RAHaL1m-37" value="" style="endArrow=none;dashed=1;html=1;rounded=0;exitX=0;exitY=0.5;exitDx=0;exitDy=0;" edge="1" parent="1">
          <mxGeometry width="50" height="50" relative="1" as="geometry">
            <mxPoint x="340" y="505" as="sourcePoint" />
            <mxPoint x="181" y="320" as="targetPoint" />
            <Array as="points">
              <mxPoint x="181" y="507" />
            </Array>
          </mxGeometry>
        </mxCell>
      </root>
    </mxGraphModel>
  </diagram>
</mxfile>
